<svg width="60" height="60" viewBox="0 0 60 60" fill="none" xmlns="http://www.w3.org/2000/svg">
<path d="M30 7.01251C20.6953 7.01251 13.125 14.5828 13.125 23.8875C13.125 33.1922 20.6953 40.7625 30 40.7625C39.3047 40.7625 46.875 33.1931 46.875 23.8875C46.875 14.5819 39.3047 7.01251 30 7.01251ZM37.9069 11.145C38.6703 11.6209 39.3901 12.1637 40.0575 12.7669L38.7994 14.1581C38.2151 13.6296 37.5848 13.1543 36.9159 12.7378L37.9069 11.145ZM30 8.88845C31.9753 8.88845 33.8953 9.26814 35.7084 10.0163L34.9922 11.7497C33.4094 11.0951 31.7128 10.7596 30 10.7625V8.88751V8.88845ZM36.9984 34.3669L30 29.2828L23.0016 34.3669L25.6753 26.1403L18.6769 21.0563H27.3263L30 12.8297L32.6738 21.0563H41.3231L34.3247 26.1403L36.9984 34.3669Z" fill="#F9BF4B"/>
<path d="M31.3106 22.9313L30 18.8972L28.6894 22.9313H24.4481L27.8794 25.425L26.5687 29.4582L30 26.9644L33.4312 29.4582L32.1206 25.4241L35.5519 22.9313H31.3106Z" fill="#F9BF4B"/>
<path d="M52.5 23.8875C52.5 11.4816 42.4059 1.38751 30 1.38751C17.5941 1.38751 7.5 11.4816 7.5 23.8875C7.5 36.2934 17.5941 46.3875 30 46.3875C42.4059 46.3875 52.5 36.2944 52.5 23.8875ZM30 42.6375C19.6613 42.6375 11.25 34.2272 11.25 23.8875C11.25 13.5478 19.6613 5.13751 30 5.13751C40.3387 5.13751 48.75 13.5497 48.75 23.8875C48.75 34.2253 40.3387 42.6375 30 42.6375Z" fill="#F9BF4B"/>
<path d="M10.1221 37.9688L2.89026 49.3556L12.9965 49.545L17.4637 58.6125L24.4481 47.6184C18.5737 46.2441 13.5131 42.7425 10.1231 37.9706L10.1221 37.9688ZM49.8778 37.9688C46.4868 42.7416 41.4262 46.2431 35.5528 47.6175L42.5371 58.6116L47.0034 49.5441L57.1096 49.3547L49.8778 37.9688Z" fill="#F9BF4B"/>
</svg>
