<svg width="60" height="60" viewBox="0 0 60 60" fill="none" xmlns="http://www.w3.org/2000/svg">
<path d="M50.5 50.5V37L29.5 33.5L10.5 37V50.5L30.5 47L50.5 50.5Z" fill="#557224"/>
<circle cx="30" cy="17" r="12" fill="#557224"/>
<path d="M58.9091 57.9091L56.6364 50.4546L58.9091 44.1818C59 43.9091 59 43.7273 58.9091 43.4546C58.8182 43.2728 58.6364 43.0909 58.3637 43C56 42.2728 53.6364 41.5455 51.1819 41.0909V37.0909C51.1819 36.7273 50.9091 36.3637 50.5455 36.1818C37.4546 31.8182 23.6364 31.8182 9.5455 36.1818C9.18186 36.2728 8.90914 36.6364 8.90914 37.0909V41.0909C6.45459 41.6364 4.09095 42.2728 1.81823 43C1.63641 43.0909 1.36368 43.2728 1.27277 43.4546C1.18186 43.6364 1.18186 43.9091 1.27277 44.1818L3.5455 50.4546L1.27277 58C1.18186 58.3637 1.27277 58.7273 1.5455 58.9091C1.5455 59 1.81823 59.0909 2.00004 59.0909C2.09095 59.0909 2.27277 59.0909 2.36368 59C5.5455 57.6364 8.81823 56.6364 12 56C12.1819 56 12.3637 56 12.4546 55.9091C12.8182 55.7273 12.9091 55.2728 12.8182 54.9091C12.8182 54.8182 12.7273 54.7273 12.7273 54.6364L11.091 51.8182C24.091 47 36.8182 47 48.9091 51.8182L47.2728 54.6364C47.2728 54.6364 47.2728 54.7273 47.1819 54.8182C47.1819 54.8182 47.1819 54.9091 47.091 55C47.091 55.0909 47.091 55.1818 47.091 55.1818C47.091 55.2728 47.091 55.2728 47.091 55.3637C47.091 55.4546 47.091 55.4546 47.1819 55.5455C47.1819 55.5455 47.1819 55.6364 47.2728 55.7273L47.3637 55.8182C47.3637 55.8182 47.4546 55.9091 47.5455 55.9091C47.6364 56 47.7273 56 47.8182 56C51.091 56.6364 54.3637 57.6364 57.6364 59C57.7273 59.0909 57.8182 59.0909 58 59.0909C58.1819 59.0909 58.4546 59 58.6364 58.8182C58.9091 58.6364 59 58.2728 58.9091 57.9091ZM49.2728 50C36.9091 45.0909 23.9091 45.1818 10.6364 50V37.6364C24 33.6364 37 33.6364 49.2728 37.6364V50Z" fill="#F9BF4B"/>
<path d="M34.5454 39.8182L32.9091 41.3637L33.2727 43.5455C33.3636 43.9091 33.1818 44.2728 32.9091 44.4546C32.6363 44.6364 32.2727 44.7273 32 44.5455L30 43.5455L28 44.6364C27.9091 44.7273 27.7272 44.7273 27.5454 44.7273C27.3636 44.7273 27.1818 44.6364 27 44.5455C26.7273 44.3637 26.5454 44 26.6363 43.6364L27 41.4546L25.4545 39.9091C25.1818 39.6364 25.0909 39.2728 25.1818 39C25.2727 38.6364 25.5454 38.4546 25.9091 38.3637L28.0909 38L29.0909 36C29.2727 35.7273 29.5454 35.4546 29.9091 35.4546C30.2727 35.4546 30.5454 35.6364 30.7272 35.9091L31.7273 37.9091L33.9091 38.1818C34.2727 38.2728 34.5454 38.4546 34.6363 38.8182C34.8182 39.2728 34.7272 39.6364 34.5454 39.8182ZM45.6363 41.6364L44 43L44.1818 45.0909C44.1818 45.4546 44 45.8182 43.7272 45.9091C43.5454 46 43.4545 46.0909 43.2727 46.0909C43.0909 46.0909 42.9091 46.0909 42.8182 45.9091L41.0909 44.8182L39.1818 45.6364C38.9091 45.8182 38.4545 45.7273 38.2727 45.4546C38 45.2728 37.9091 44.9091 38 44.5455L38.5454 42.5455L37.1818 41C37 40.7273 36.9091 40.3637 37 40.0909C37.0909 39.8182 37.4545 39.5455 37.7272 39.5455L39.8182 39.3637L40.9091 37.5455C41.0909 37.2728 41.3636 37.0909 41.7273 37.0909C42.0909 37.0909 42.3636 37.3637 42.4545 37.6364L43.1818 39.5455L45.1818 40C45.5454 40.0909 45.8182 40.3637 45.9091 40.6364C46.0909 41.0909 45.9091 41.4546 45.6363 41.6364ZM23.0909 41.6364L21.4545 43L21.6363 45.0909C21.6363 45.4546 21.5454 45.8182 21.1818 45.9091C21 46 20.9091 46.0909 20.7272 46.0909C20.5454 46.0909 20.3636 46.0909 20.2727 45.9091L18.5454 44.8182L16.6363 45.6364C16.2727 45.8182 15.9091 45.7273 15.7272 45.4546C15.4545 45.2728 15.3636 44.9091 15.4545 44.5455L16 42.5455L14.6363 41C14.4545 40.7273 14.3636 40.3637 14.4545 40.0909C14.5454 39.8182 14.9091 39.5455 15.2727 39.5455L17.3636 39.3637L18.4545 37.5455C18.6363 37.2728 18.9091 37.0909 19.2727 37.0909C19.6363 37.0909 19.9091 37.3637 20.0909 37.6364L20.9091 39.5455L22.9091 40C23.2727 40.0909 23.5454 40.3637 23.6363 40.6364C23.4545 41.0909 23.3636 41.4546 23.0909 41.6364ZM45.0909 15.9091L43.0909 13.9091L44.1818 11.2728C44.3636 10.8182 44.1818 10.2728 43.7272 10.0909L41.0909 9.00003V6.09094C41.0909 5.54548 40.6363 5.18185 40.1818 5.18185H37.3636L36.2727 2.54548C36.1818 2.36366 36 2.18185 35.8182 2.09094C35.6363 2.00003 35.3636 2.00003 35.0909 2.09094L32.4545 3.18185L30.4545 1.18185C30.0909 0.81821 29.5454 0.81821 29.1818 1.18185L27.1818 3.18185L24.5454 2.09094C24.3636 2.00003 24.0909 2.00003 23.8182 2.09094C23.6363 2.18185 23.4545 2.36366 23.3636 2.54548L22.2727 5.18185H19.4545C19 5.18185 18.5454 5.54548 18.5454 6.09094V8.90912L15.9091 10C15.4545 10.1818 15.1818 10.7273 15.4545 11.1818L16.5454 13.8182L14.5454 15.8182C14.1818 16.1818 14.1818 16.7273 14.5454 17.0909L16.5454 19.0909L15.3636 21.8182C15.1818 22.2728 15.3636 22.8182 15.8182 23L18.4545 24.0909V26.9091C18.4545 27.3637 18.9091 27.8182 19.3636 27.8182H22.1818L23.2727 30.4546C23.4545 30.9091 24 31.1818 24.4545 30.9091L27.0909 29.8182L29.0909 31.8182C29.2727 32 29.4545 32.0909 29.7273 32.0909C30 32.0909 30.1818 32 30.3636 31.8182L32.3636 29.8182L35 30.9091C35.4545 31.0909 36 30.9091 36.1818 30.4546L37.2727 27.8182H40.0909C40.5454 27.8182 41 27.3637 41 26.9091V24.0909L43.6363 23C44.0909 22.8182 44.3636 22.2728 44.0909 21.8182L43 19.1818L45 17.1818C45.4545 16.8182 45.4545 16.2728 45.0909 15.9091ZM29.8182 24.5455C25.3636 24.5455 21.8182 20.9091 21.8182 16.5455C21.8182 12.1818 25.4545 8.54548 29.8182 8.54548C34.1818 8.54548 37.8182 12.1818 37.8182 16.5455C37.8182 20.9091 34.1818 24.5455 29.8182 24.5455Z" fill="#F9BF4B"/>
<path d="M34.5454 15.5455L32.9091 17.0909L33.2727 19.2727C33.3636 19.6364 33.1818 20 32.9091 20.1818C32.6363 20.3636 32.2727 20.4545 32 20.2727L30 19.2727L28 20.2727C27.9091 20.3636 27.7272 20.3636 27.5454 20.3636C27.3636 20.3636 27.1818 20.2727 27 20.1818C26.7273 20 26.5454 19.6364 26.6363 19.2727L27 17.0909L25.4545 15.6364C25.1818 15.3636 25.0909 15 25.1818 14.7273C25.2727 14.3636 25.5454 14.1818 25.9091 14.0909L28.0909 13.7273L29.0909 11.7273C29.2727 11.4546 29.5454 11.1818 29.9091 11.1818C30.2727 11.1818 30.5454 11.3636 30.7272 11.7273L31.7273 13.7273L33.9091 14C34.2727 14.0909 34.5454 14.2727 34.6363 14.6364C34.8182 15 34.7273 15.3636 34.5454 15.5455Z" fill="#F9BF4B"/>
</svg>
